<svg id="visual" viewBox="0 0 1440 560" width="1440" height="560" xmlns="http://www.w3.org/2000/svg" xmlns:xlink="http://www.w3.org/1999/xlink" version="1.1"><rect x="0" y="0" width="1440" height="560" fill="#140021"></rect><path d="M0 398L160 390L320 378L480 417L640 374L800 422L960 376L1120 402L1280 406L1440 386L1440 561L1280 561L1120 561L960 561L800 561L640 561L480 561L320 561L160 561L0 561Z" fill="#fa7268"></path><path d="M0 442L160 427L320 481L480 430L640 444L800 438L960 424L1120 483L1280 426L1440 458L1440 561L1280 561L1120 561L960 561L800 561L640 561L480 561L320 561L160 561L0 561Z" fill="#d84a64"></path><path d="M0 477L160 525L320 504L480 502L640 522L800 512L960 477L1120 515L1280 507L1440 528L1440 561L1280 561L1120 561L960 561L800 561L640 561L480 561L320 561L160 561L0 561Z" fill="#b0235f"></path></svg>